# xmcd CD database file
#
# Track frame offsets:
#	150
#	20800
#	40769
#	56712
#	77030
#	106386
#
# Disc length: 1736 seconds
#
# Revision: 0
# Processed by: cddbd v1.5.1PL0 Copyright (c) Steve Scherf et al.
# Submitted via: CDex 1.51
#
DISCID=4806c606
DTITLE=大村孝佳 - NOWHERE TO GO
DYEAR=2004
DGENRE=Heavy Metal
TTITLE0=HIGH WORKS
TTITLE1=UNITE
TTITLE2=EARLY REPLY
TTITLE3=CRY FOR THE FAITH
TTITLE4=NOWHERE TO GO
TTITLE5=PLEASANT SURPRISE(ライヴ映像)
EXTD=YEAR: 2004
EXTT0=
EXTT1=
EXTT2=
EXTT3=
EXTT4=
EXTT5=
PLAYORDER=
